<svg width="346" height="85" viewBox="0 0 346 85" fill="none" xmlns="http://www.w3.org/2000/svg">
<g clip-path="url(#clip0_2217_1400)">
<g opacity="0.5">
<path d="M44.3127 29.3436C44.3134 28.3511 43.9847 27.3865 43.3783 26.6016C42.7719 25.8168 41.9222 25.2562 40.963 25.008L5.54983 16.0919C4.89222 15.9258 4.20547 15.9122 3.54182 16.052C2.87816 16.1919 2.25508 16.4815 1.71996 16.8989C1.18485 17.3163 0.751798 17.8505 0.453755 18.4608C0.155712 19.0711 0.000525459 19.7415 3.2376e-07 20.4209V70.4026C-0.000378107 71.3972 0.331004 72.3635 0.941503 73.1478C1.552 73.9321 2.4066 74.4896 3.36954 74.7316L38.7629 83.6543C39.4205 83.8204 40.1072 83.834 40.7709 83.6942C41.4346 83.5543 42.0576 83.2647 42.5928 82.8473C43.1279 82.4299 43.5609 81.8957 43.859 81.2854C44.157 80.6751 44.3122 80.0047 44.3127 79.3253V29.3436Z" fill="white"/>
</g>
<path d="M76.4494 13.5831V63.6045C76.4488 64.6107 76.1171 65.5887 75.5055 66.3868C74.8939 67.185 74.0367 67.7589 73.0667 68.0195L60.4144 19.6132C60.5076 19.9989 60.5542 20.3945 60.5531 20.7914V65.4049L53.7612 63.6508L53.0477 61.0031L44.0358 27.6555C44.1344 28.0246 44.1833 28.4053 44.1812 28.7874V61.1753L38.3472 59.6661L35.3939 58.9049C34.4454 58.6533 33.6068 58.094 33.0092 57.3144C32.4115 56.5348 32.0884 55.5788 32.0905 54.5957V4.44195C32.0914 3.76649 32.2459 3.10012 32.5421 2.49338C32.8384 1.88664 33.2687 1.35546 33.8004 0.940155C34.3322 0.524846 34.9513 0.236307 35.6109 0.0964265C36.2705 -0.043454 36.9532 -0.0310022 37.6073 0.132837L73.1063 9.26074C74.0632 9.50749 74.9111 10.0661 75.5163 10.8486C76.1216 11.6312 76.4498 12.5931 76.4494 13.5831Z" fill="#BEBED4"/>
<path d="M60.7838 21.48V66.0935L53.9919 64.3394L53.2783 61.6917L60.6252 20.2289V20.3018C60.7251 20.6867 60.7784 21.0823 60.7838 21.48Z" fill="#115B36"/>
<path d="M60.7838 21.7087V71.2866C60.7831 72.3688 60.4132 73.4183 59.7355 74.261C59.0577 75.1038 58.1129 75.6891 57.0575 75.92L53.9919 64.5681L53.2784 61.9204L44.2665 28.5728C44.3651 28.9419 44.414 29.3226 44.4118 29.7047V73.1665L36.728 71.1807L19.9596 66.865C18.9427 66.6023 18.0417 66.0085 17.3983 65.177C16.7549 64.3455 16.4055 63.3233 16.405 62.2712V12.7198C16.403 11.9924 16.568 11.2744 16.8874 10.6212C17.2068 9.96801 17.672 9.39725 18.2469 8.9531C18.8218 8.50895 19.4911 8.20333 20.2028 8.05991C20.9145 7.91649 21.6497 7.93911 22.3513 8.12603L32.3278 10.6943L57.2689 17.1149C58.0776 17.3239 58.8168 17.743 59.412 18.33C60.0071 18.9169 60.437 19.6509 60.6583 20.4576V20.5304C60.7471 20.9167 60.7892 21.3123 60.7838 21.7087Z" fill="#E6E6EC"/>
<path d="M44.3854 29.476V79.0804C44.3854 79.8184 44.2169 80.5467 43.8928 81.2095C43.5687 81.8722 43.0975 82.4519 42.5153 82.9042C41.9332 83.3565 41.2555 83.6693 40.5341 83.8188C39.8127 83.9684 39.0667 83.9506 38.3533 83.7668L3.30347 74.725C2.35712 74.4763 1.51968 73.9205 0.922005 73.1444C0.324333 72.3684 0.000108407 71.4159 2.45202e-07 70.4357V20.5003C-0.00022962 19.7931 0.161159 19.0951 0.471799 18.46C0.782439 17.8249 1.23408 17.2694 1.79213 16.8362C2.35017 16.403 2.99979 16.1035 3.69122 15.9608C4.38265 15.818 5.09752 15.8357 5.78107 16.0125L16.405 18.7462L32.2947 22.8369L40.963 25.0742C41.7093 25.2661 42.3943 25.6459 42.9528 26.1777C43.5113 26.7095 43.9249 27.3755 44.1541 28.1124C44.1801 28.1885 44.2021 28.2658 44.2202 28.3441C44.3255 28.7123 44.3811 29.093 44.3854 29.476Z" fill="white"/>
</g>
<path d="M117.513 17.165H125.129V65.6311H117.513V17.165Z" fill="white"/>
<path d="M145.096 24.0887H137.133V17.165H160.674V24.0887H152.712V65.6311H145.096V24.0887Z" fill="white"/>
<path d="M182.571 66.3234C178.878 66.3234 176.086 65.2849 174.193 63.2077C172.301 61.0845 171.354 58.0611 171.354 54.1377V51.3682H178.555V54.6916C178.555 57.8303 179.871 59.3997 182.502 59.3997C183.794 59.3997 184.763 59.0304 185.41 58.2919C186.102 57.5072 186.448 56.2609 186.448 54.5531C186.448 52.5221 185.987 50.7451 185.063 49.2218C184.14 47.6525 182.432 45.7831 179.94 43.6136C176.801 40.8441 174.609 38.3516 173.362 36.136C172.116 33.8743 171.493 31.3356 171.493 28.5199C171.493 24.6888 172.462 21.7347 174.401 19.6576C176.34 17.5343 179.155 16.4726 182.848 16.4726C186.494 16.4726 189.241 17.5343 191.087 19.6576C192.98 21.7347 193.926 24.735 193.926 28.6584V30.6663H186.725V28.1737C186.725 26.512 186.402 25.3119 185.756 24.5734C185.11 23.7887 184.163 23.3964 182.917 23.3964C180.378 23.3964 179.109 24.9427 179.109 28.0353C179.109 29.7893 179.571 31.4279 180.494 32.9511C181.463 34.4743 183.194 36.3206 185.687 38.4901C188.871 41.2596 191.064 43.7752 192.264 46.0369C193.464 48.2987 194.064 50.9528 194.064 53.9992C194.064 57.9688 193.072 61.0152 191.087 63.1385C189.148 65.2618 186.31 66.3234 182.571 66.3234Z" fill="white"/>
<path d="M204.939 17.165H212.279L215.671 54.4146H215.81L219.41 17.165H227.718L231.319 54.4146H231.457L234.85 17.165H241.427L236.512 65.6311H227.026L223.564 32.9511H223.426L219.964 65.6311H209.855L204.939 17.165Z" fill="white"/>
<path d="M258.527 17.165H268.843L276.736 65.6311H269.12L267.735 56.0071V56.1456H259.081L257.696 65.6311H250.634L258.527 17.165ZM266.835 49.568L263.443 25.612H263.304L259.981 49.568H266.835Z" fill="white"/>
<path d="M288.74 17.165H300.025C303.949 17.165 306.811 18.0882 308.611 19.9345C310.411 21.7347 311.311 24.5272 311.311 28.3122V31.2894C311.311 36.3206 309.649 39.5056 306.326 40.8441V40.9826C308.172 41.5365 309.465 42.6674 310.203 44.3752C310.988 46.0831 311.38 48.3679 311.38 51.2297V59.7459C311.38 61.1306 311.426 62.2615 311.519 63.1385C311.611 63.9694 311.842 64.8002 312.211 65.6311H304.456C304.179 64.8464 303.995 64.1078 303.903 63.4155C303.81 62.7231 303.764 61.4768 303.764 59.6767V50.8143C303.764 48.5987 303.395 47.0524 302.656 46.1754C301.964 45.2984 300.741 44.8599 298.987 44.8599H296.356V65.6311H288.74V17.165ZM299.125 37.9362C300.648 37.9362 301.779 37.5438 302.518 36.7591C303.303 35.9745 303.695 34.6589 303.695 32.8126V29.0738C303.695 27.3198 303.372 26.0505 302.726 25.2658C302.125 24.4811 301.156 24.0887 299.818 24.0887H296.356V37.9362H299.125Z" fill="white"/>
<path d="M324.973 17.165H345.744V24.0887H332.589V36.8976H343.044V43.8213H332.589V58.7073H345.744V65.6311H324.973V17.165Z" fill="white"/>
<defs>
<clipPath id="clip0_2217_1400">
<rect width="76.4494" height="84.3828" fill="white"/>
</clipPath>
</defs>
</svg>
